Coordinates
version=1
nRows=14
nColumns=24
inDegrees=yes

Units are S.I. units (second, meters, Newtons, ...)
Angles are in degrees.

endheader
time	pelvis_tilt	pelvis_list	pelvis_rotation	pelvis_tx	pelvis_ty	pelvis_tz	hip_flexion_r	hip_adduction_r	hip_rotation_r	knee_angle_r	ankle_angle_r	subtalar_angle_r	mtp_angle_r	hip_flexion_l	hip_adduction_l	hip_rotation_l	knee_angle_l	ankle_angle_l	subtalar_angle_l	mtp_angle_l	lumbar_extension	lumbar_bending	lumbar_rotation
      3.45000000	    -14.15415333	     11.73041647	    -10.15531152	     -0.76743803	     -0.01459937	      0.01405929	     20.53229499	    -16.46758533	     -1.80240399	    -56.24261456	    -25.05708056	      9.35017623	     38.30849937	     24.89638932	      9.81194139	    -16.59353745	     -8.61089552	    -10.33641316	      5.10903619	      9.85504377	     16.14449658	    -13.83895725	      5.77565605
      3.45500000	    -14.03425500	     11.63429935	    -10.10901966	     -0.76190062	     -0.01374252	      0.01344921	     21.09316505	    -16.37016003	     -1.68134319	    -56.99469619	    -24.47110325	      9.54592192	     38.64732892	     24.22564082	      9.92798089	    -16.50062412	     -8.26242324	    -10.08352104	      5.37519751	      9.81383002	     15.98957569	    -13.76623141	      5.48052496
      3.46000000	    -13.90197451	     11.50163154	    -10.06808181	     -0.75645199	     -0.01281384	      0.01286776	     21.62254177	    -16.21088296	     -1.53288444	    -57.65959850	    -23.96730810	      9.84258720	     39.12103808	     23.53170345	     10.00532144	    -16.35785780	     -7.89898146	     -9.88735511	      5.59845603	      9.75558803	     15.80188659	    -13.66114100	      5.16138827
      3.46500000	    -13.69787418	     11.35547404	    -10.03023703	     -0.75097648	     -0.01182646	      0.01225497	     22.04142831	    -16.05750898	     -1.43522906	    -58.21030276	    -23.55943386	     10.00152256	     40.18758735	     22.74808863	     10.09548788	    -16.16873721	     -7.52574534	     -9.65278264	      5.74479573	      9.56232308	     15.53925311	    -13.54521390	      4.85575867
      3.47000000	    -13.66735447	     11.16712701	     -9.92944546	     -0.74554961	     -0.01101982	      0.01161203	     22.62474324	    -15.81959698	     -1.34780757	    -58.75815702	    -23.07788347	     10.45957686	     40.63276756	     22.16000622	     10.11002471	    -15.93900846	     -7.17980477	     -9.48883149	      5.87493475	      9.58109078	     15.44676122	    -13.37208973	      4.49475114
      3.47500000	    -13.58748547	     10.98343394	     -9.83241801	     -0.74014008	     -0.01019844	      0.01096670	     23.14291375	    -15.59735879	     -1.27470845	    -59.24143244	    -22.59833713	     10.96012856	     41.19624850	     21.51674778	     10.14099319	    -15.68992763	     -6.82603203	     -9.32845756	      5.96041116	      9.54543621	     15.30321050	    -13.21150830	      4.14078365
      3.48000000	    -13.41272463	     10.79720924	     -9.72555995	     -0.73472798	     -0.00930645	      0.01025438	     23.52628678	    -15.40773443	     -1.26474482	    -59.61079955	    -22.20182631	     11.24908469	     42.44873230	     20.75700055	     10.20838939	    -15.30927484	     -6.45790773	     -9.14760416	      5.88897903	      9.27644100	     15.05057562	    -13.06209242	      3.79209635
      3.48500000	    -13.40983569	     10.55978871	     -9.62718481	     -0.72935829	     -0.00859040	      0.00964977	     24.09383494	    -15.08937888	     -1.21163701	    -59.99412292	    -21.70861811	     11.76688091	     42.83034633	     20.20181191	     10.15192853	    -15.08955184	     -6.13375915	     -8.96151340	      5.99037362	      9.28122679	     14.98905852	    -12.82580081	      3.45873296
      3.49000000	    -13.27702192	     10.36542255	     -9.47987722	     -0.72402615	     -0.00779521	      0.00892182	     24.49886146	    -14.88166239	     -1.22314500	    -60.29153804	    -21.24404187	     12.21450466	     43.69885398	     19.49900159	     10.19877061	    -14.70523093	     -5.78433901	     -8.80503364	      5.94953513	      9.03898765	     14.76882951	    -12.67311041	      3.06339554
      3.49500000	    -13.27628463	     10.11698311	     -9.37584819	     -0.71870456	     -0.00714329	      0.00830863	     25.04561502	    -14.54553705	     -1.19618366	    -60.57548646	    -20.73286032	     12.68819933	     44.02039822	     18.95146984	     10.12497046	    -14.47991245	     -5.46763326	     -8.61824512	      6.02755316	      9.02933332	     14.70729002	    -12.42117080	      2.75332333
      3.50000000	    -13.23163029	      9.89190004	     -9.23217929	     -0.71340851	     -0.00649756	      0.00762883	     25.52860573	    -14.26871270	     -1.21322312	    -60.80982338	    -20.20260950	     13.17939356	     44.37592401	     18.36056264	     10.09742868	    -14.20479810	     -5.14880554	     -8.45296152	      6.08517195	      8.97331401	     14.58908435	    -12.21400929	      2.39461666
      3.50500000	    -13.15367179	      9.65882455	     -9.07184959	     -0.70813577	     -0.00580384	      0.00692330	     25.95430900	    -13.99282081	     -1.25280512	    -60.97687161	    -19.70744634	     13.59473499	     44.74560861	     17.72675254	     10.07251899	    -13.87968269	     -4.81769486	     -8.32003032	      6.10333913	      8.83935953	     14.42431292	    -12.00873385	      1.99336480
      3.51000000	    -13.08965129	      9.41712075	     -8.92115735	     -0.70288538	     -0.00517887	      0.00623983	     26.38989271	    -13.70244956	     -1.31734733	    -61.11091231	    -19.17819986	     13.90186222	     45.02624143	     17.12130749	     10.02377828	    -13.57167048	     -4.51267776	     -8.15712991	      6.11639774	      8.73057754	     14.28084520	    -11.78673186	      1.64333169
      3.51500000	    -12.98443743	      9.17923027	     -8.74462638	     -0.69766262	     -0.00455112	      0.00551048	     26.76540777	    -13.44437451	     -1.43951468	    -61.20293183	    -18.63385950	     14.09113570	     45.25072628	     16.47967681	      9.99240911	    -13.22299709	     -4.22290104	     -7.99210627	      6.08843034	      8.55611180	     14.08486578	    -11.58265461	      1.27289089
